#!OML:ASF E:\acrobat2\Project_11_07_03\Capture day 1\Session 1\Acrobat.ASF
:FULLY-SPECIFIED
:DEGREES
378
root 10.9946 21.6801 15.3134 2.81093 0.0918414 -1.23339
lowerback -8.62131 0.255611 3.33338
upperback -5.43075 0.110107 -0.163861
thorax -0.789997 -0.0277807 -2.03199
lowerneck -5.17095 -1.04315 -1.19974
upperneck 7.03264 -1.48864 2.4083
head 3.19864 -0.68053 0.92895
rclavicle -5.37185e-015 -3.31722e-015
rhumerus 80.504 -14.6172 -45.8032
rradius 23.5327
rwrist 7.76525
rhand -13.4362 -36.8933
rfingers 7.12502
rthumb 12.6727 -66.4888
lclavicle -5.37185e-015 -3.31722e-015
lhumerus 86.5625 11.4706 41.9374
lradius 17.6727
lwrist -11.4937
lhand -5.34929 -13.0678
lfingers 7.12502
lthumb 20.4578 15.8744
rfemur 9.90435 12.4287 19.3208
rtibia -4.68305
rfoot -20.9284 -16.3416
rtoes 27.3716
lfemur 6.36769 -0.504088 -12.1405
ltibia -1.11374
lfoot -9.07792 -1.94859
ltoes 4.47329
379
root 10.9956 21.6778 15.3191 2.77769 0.060826 -1.27411
lowerback -8.63485 0.253636 3.339
upperback -5.4939 0.107603 -0.134565
thorax -0.84846 -0.0305134 -2.00505
lowerneck -4.95002 -1.0434 -1.24198
upperneck 7.02563 -1.49221 2.47602
head 3.15548 -0.682414 0.958625
rclavicle -1.45594e-015 -2.21769e-015
rhumerus 80.5793 -14.5297 -45.9215
rradius 23.4903
rwrist 7.90295
rhand -13.4828 -36.8039
rfingers 7.12502
rthumb 12.6278 -66.4022
lclavicle -1.45594e-015 -2.21769e-015
lhumerus 86.5103 11.4522 41.8968
lradius 17.764
lwrist -11.4878
lhand -5.25504 -12.995
lfingers 7.12502
lthumb 20.5484 15.9375
rfemur 9.91148 12.1799 19.3072
rtibia -4.61443
rfoot -20.7743 -16.1003
rtoes 27.1118
lfemur 6.46809 -0.635862 -12.1248
ltibia -1.1634
lfoot -9.1993 -1.88815
ltoes 5.11533
380
root 10.9969 21.6741 15.3247 2.75378 0.0212174 -1.28658
lowerback -8.63707 0.247564 3.3153
upperback -5.58284 0.102586 -0.116015
thorax -0.940019 -0.0348086 -1.97292
lowerneck -4.68884 -1.02528 -1.2464
upperneck 7.00271 -1.472 2.51596
head 3.09795 -0.672896 0.97347
rclavicle 4.41752e-015 -6.33626e-016
rhumerus 80.6031 -14.4141 -45.9824
rradius 23.4381
rwrist 8.01904
rhand -13.5712 -36.7252
rfingers 7.12502
rthumb 12.5425 -66.3288
lclavicle 4.41752e-015 -6.33626e-016
lhumerus 86.4382 11.4156 41.8511
lradius 17.8575
lwrist -11.5194
lhand -5.15761 -12.9198
lfingers 7.12502
lthumb 20.642 16.0026
rfemur 9.90368 11.9137 19.2498
rtibia -4.54338
rfoot -20.6178 -15.8317
rtoes 26.8993
lfemur 6.56317 -0.759715 -12.1492
ltibia -1.2274
lfoot -9.33491 -1.80962
ltoes 5.45494
381
root 10.9985 21.669 15.3301 2.73779 -0.0213183 -1.27021
lowerback -8.63418 0.234524 3.2638
upperback -5.67156 0.0903846 -0.110948
thorax -1.03446 -0.0421977 -1.93966
lowerneck -4.4751 -0.992887 -1.21476
upperneck 6.99159 -1.43286 2.5256
head 3.05236 -0.653768 0.972786
rclavicle -5.04533e-015 -3.91047e-015
rhumerus 80.6134 -14.308 -45.9999
rradius 23.385
rwrist 8.09809
rhand -13.6703 -36.643
rfingers 7.12502
rthumb 12.447 -66.2524
lclavicle -5.04533e-015 -3.91047e-015
lhumerus 86.3621 11.4127 41.6874
lradius 17.9435
lwrist -11.4621
lhand -5.07375 -12.835
lfingers 7.12502
lthumb 20.7225 16.0786
rfemur 9.89653 11.6807 19.1619
rtibia -4.49215
rfoot -20.5 -15.5688
rtoes 26.8532
lfemur 6.65542 -0.896707 -12.2149
ltibia -1.31896
lfoot -9.47627 -1.69716
ltoes 5.5527
382
root 11.0001 21.6626 15.3352 2.72473 -0.0653692 -1.2294
lowerback -8.61914 0.21368 3.18682
upperback -5.74518 0.0696507 -0.115168
thorax -1.12019 -0.0529321 -1.90231
lowerneck -4.36459 -0.96372 -1.17999
upperneck 7.02636 -1.3975 2.52279
head 3.04201 -0.635965 0.967415
rclavicle 3.01283e-015 -4.27076e-015
rhumerus 80.6315 -14.2294 -45.9821
rradius 23.3516
rwrist 8.11949
rhand -13.7426 -36.5636
rfingers 7.12502
rthumb 12.3773 -66.1772
lclavicle 3.01283e-015 -4.27076e-015
lhumerus 86.2981 11.4576 41.4324
lradius 18.0151
lwrist -11.3204
lhand -5.00818 -12.7483
lfingers 7.12502
lthumb 20.7856 16.1584
rfemur 9.90213 11.5117 19.0596
rtibia -4.47514
rfoot -20.4209 -15.3645
rtoes 26.8404
lfemur 6.75096 -1.05966 -12.3147
ltibia -1.43611
lfoot -9.62278 -1.55347
ltoes 5.63357
383
root 11.0016 21.6552 15.3403 2.70255 -0.107613 -1.17743
lowerback -8.59235 0.187202 3.09834
upperback -5.78942 0.0420237 -0.124045
thorax -1.18206 -0.066066 -1.86379
lowerneck -4.35615 -0.949688 -1.17867
upperneck 7.10047 -1.38173 2.54046
head 3.0656 -0.627181 0.973932
rclavicle 1.21554e-014 -5.09386e-015
rhumerus 80.6682 -14.1887 -45.9287
rradius 23.3489
rwrist 8.0778
rhand -13.7779 -36.5069
rfingers 7.12502
rthumb 12.3432 -66.1225
lclavicle 1.21554e-014 -5.09386e-015
lhumerus 86.2529 11.5637 41.0639
lradius 18.0597
lwrist -11.0608
lhand -4.96334 -12.6634
lfingers 7.12502
lthumb 20.8286 16.2386
rfemur 9.93822 11.4078 18.9656
rtibia -4.49747
rfoot -20.3665 -15.243
rtoes 26.7425
lfemur 6.86465 -1.24047 -12.4284
ltibia -1.56762
lfoot -9.77349 -1.40783
ltoes 5.88708
384
root 11.0027 21.647 15.3455 2.66618 -0.146885 -1.14427
lowerback -8.55967 0.164042 3.03067
upperback -5.81056 0.017161 -0.127675
thorax -1.22298 -0.0776354 -1.83132
lowerneck -4.39229 -0.96398 -1.2095
upperneck 7.20567 -1.40193 2.55674
head 3.10949 -0.636745 0.984328
rclavicle 1.34374e-015 5.12492e-016
rhumerus 80.6968 -14.1805 -45.8172
rradius 23.3795
rwrist 7.98072
rhand -13.7706 -36.4835
rfingers 7.12502
rthumb 12.3503 -66.0988
lclavicle 1.34374e-015 5.12492e-016
lhumerus 86.2204 11.697 40.6509
lradius 18.0867
lwrist -10.7599
lhand -4.92965 -12.5781
lfingers 7.12502
lthumb 20.861 16.3203
rfemur 10.0118 11.3699 18.9207
rtibia -4.54665
rfoot -20.3638 -15.17
rtoes 26.7204
lfemur 6.9961 -1.38292 -12.5075
ltibia -1.68666
lfoot -9.9068 -1.31567
ltoes 6.17186
385
root 11.0031 21.6382 15.3505 2.6215 -0.186576 -1.13681
lowerback -8.52758 0.152503 2.98881
upperback -5.83444 0.00600473 -0.123585
thorax -1.26581 -0.0829417 -1.80433
lowerneck -4.33732 -1.00205 -1.28295
upperneck 7.27619 -1.45288 2.59976
head 3.1258 -0.662607 1.00962
rclavicle 1.02654e-015 1.83876e-015
rhumerus 80.6698 -14.1815 -45.6409
rradius 23.4401
rwrist 7.84832
rhand -13.7145 -36.4938
rfingers 7.12502
rthumb 12.4044 -66.1057
lclavicle 1.02654e-015 1.83876e-015
lhumerus 86.1989 11.7669 40.3973
lradius 18.1152
lwrist -10.6053
lhand -4.89276 -12.4938
lfingers 7.12502
lthumb 20.8964 16.4008
rfemur 10.1087 11.4111 18.9351
rtibia -4.60035
rfoot -20.4455 -15.1165
rtoes 26.9051
lfemur 7.12978 -1.44469 -12.5323
ltibia -1.76733
lfoot -10.0087 -1.30975
ltoes 6.34541
386
root 11.0025 21.629 15.3552 2.57473 -0.230136 -1.14619
lowerback -8.50851 0.151191 2.96022
upperback -5.86515 0.00719505 -0.115335
thorax -1.30802 -0.0824052 -1.77962
lowerneck -4.16376 -1.05106 -1.3749
upperneck 7.28091 -1.51853 2.66477
head 3.09799 -0.696671 1.04457
rclavicle -1.22687e-016 5.22431e-015
rhumerus 80.5998 -14.1796 -45.4502
rradius 23.5139
rwrist 7.72707
rhand -13.6358 -36.5666
rfingers 7.12502
rthumb 12.4803 -66.1739
lclavicle -1.22687e-016 5.22431e-015
lhumerus 86.1716 11.7656 40.3131
lradius 18.1565
lwrist -10.5945
lhand -4.85079 -12.4128
lfingers 7.12502
lthumb 20.9368 16.4772
rfemur 10.2144 11.531 18.996
rtibia -4.6451
rfoot -20.6035 -15.0828
rtoes 27.2462
lfemur 7.25925 -1.44916 -12.5148
ltibia -1.81715
lfoot -10.0913 -1.36937
ltoes 6.47265
387
root 11.0008 21.6198 15.3593 2.53379 -0.280915 -1.16715
lowerback -8.50599 0.155094 2.93457
upperback -5.90072 0.0146205 -0.102397
thorax -1.34592 -0.0787203 -1.75128
lowerneck -3.92304 -1.09414 -1.45201
upperneck 7.23491 -1.57627 2.71987
head 3.03976 -0.72752 1.07387
rclavicle 9.63873e-015 -2.20527e-015
rhumerus 80.5149 -14.1678 -45.2741
rradius 23.5833
rwrist 7.63199
rhand -13.5877 -36.6798
rfingers 7.12502
rthumb 12.5267 -66.2843
lclavicle 9.63873e-015 -2.20527e-015
lhumerus 86.1483 11.7006 40.4429
lradius 18.2099
lwrist -10.7745
lhand -4.80014 -12.3417
lfingers 7.12502
lthumb 20.9854 16.543
rfemur 10.3103 11.7113 19.0891
rtibia -4.66931
rfoot -20.819 -15.0588
rtoes 27.6989
lfemur 7.37344 -1.42361 -12.4653
ltibia -1.8456
lfoot -10.1663 -1.45889
ltoes 6.63179
388
root 10.9984 21.6111 15.3627 2.50253 -0.331041 -1.18257
lowerback -8.51519 0.153905 2.8938
upperback -5.93914 0.0159161 -0.0890213
thorax -1.38059 -0.0776279 -1.71446
lowerneck -3.68988 -1.11652 -1.48419
upperneck 7.17694 -1.60609 2.73438
head 2.97726 -0.744719 1.08309
rclavicle 1.43032e-015 3.38555e-015
rhumerus 80.4376 -14.1406 -45.1198
rradius 23.6353
rwrist 7.54203
rhand -13.5915 -36.8121
rfingers 7.12502
rthumb 12.523 -66.4169
lclavicle 1.43032e-015 3.38555e-015
lhumerus 86.1158 11.6184 40.641
lradius 18.2683
lwrist -11.0088
lhand -4.74246 -12.2792
lfingers 7.12502
lthumb 21.0408 16.5994
rfemur 10.3868 11.9196 19.1816
rtibia -4.677
rfoot -21.0613 -15.0387
rtoes 28.2382
lfemur 7.46577 -1.40694 -12.4148
ltibia -1.86414
lfoot -10.2465 -1.5427
ltoes 6.92742
389
root 10.9959 21.6032 15.3659 2.47526 -0.36752 -1.19421
lowerback -8.52384 0.138717 2.84594
upperback -5.9729 -0.000947575 -0.075672
thorax -1.41158 -0.0852877 -1.67497
lowerneck -3.53214 -1.11855 -1.46981
upperneck 7.14355 -1.60837 2.70622
head 2.93557 -0.747754 1.0713
rclavicle 1.06987e-014 -2.67738e-015
rhumerus 80.3944 -14.0996 -45.0102
rradius 23.6673
rwrist 7.45565
rhand -13.6259 -36.9448
rfingers 7.12502
rthumb 12.4898 -66.5515
lclavicle 1.06987e-014 -2.67738e-015
lhumerus 86.0504 11.5754 40.7161
lradius 18.3301
lwrist -11.1151
lhand -4.68535 -12.2222
lfingers 7.12502
lthumb 21.0957 16.6502
rfemur 10.4546 12.1131 19.2644
rtibia -4.68425
rfoot -21.2889 -15.0197
rtoes 28.8221
lfemur 7.54865 -1.45049 -12.3769
ltibia -1.8991
lfoot -10.3478 -1.58677
ltoes 7.37072
390
root 10.9939 21.5965 15.369 2.44787 -0.388597 -1.217
lowerback -8.51935 0.111642 2.81347
upperback -6.00122 -0.0342059 -0.0592392
thorax -1.445 -0.101493 -1.64208
lowerneck -3.4666 -1.11307 -1.43556
upperneck 7.16015 -1.60058 2.65805
head 2.92748 -0.745017 1.05003
rclavicle -1.19271e-014 9.64727e-015
rhumerus 80.3877 -14.0481 -44.9535
rradius 23.6842
rwrist 7.38181
rhand -13.6784 -37.0522
rfingers 7.12502
rthumb 12.4392 -66.662
lclavicle -1.19271e-014 9.64727e-015
lhumerus 85.9534 11.5918 40.5996
lradius 18.3887
lwrist -11.025
lhand -4.63013 -12.1797
lfingers 7.12502
lthumb 21.1488 16.6868
rfemur 10.5146 12.2486 19.3442
rtibia -4.69413
rfoot -21.4424 -15.0144
rtoes 29.2142
lfemur 7.62753 -1.55517 -12.3392
ltibia -1.9555
lfoot -10.4651 -1.5783
ltoes 7.7941
391
root 10.9927 21.5911 15.3723 2.4167 -0.396041 -1.25034
lowerback -8.51526 0.0760852 2.80218
upperback -6.01298 -0.0803263 -0.0412692
thorax -1.46164 -0.124305 -1.6204
lowerneck -3.48065 -1.10645 -1.41115
upperneck 7.2194 -1.59176 2.62229
head 2.94918 -0.740849 1.03466
rclavicle -8.24801e-015 6.70898e-015
rhumerus 80.4317 -13.9948 -44.9607
rradius 23.6825
rwrist 7.33821
rhand -13.7384 -37.1169
rfingers 7.12502
rthumb 12.3814 -66.7303
lclavicle -8.24801e-015 6.70898e-015
lhumerus 85.8467 11.6693 40.3297
lradius 18.4407
lwrist -10.7968
lhand -4.57342 -12.1509
lfingers 7.12502
lthumb 21.2032 16.7095
rfemur 10.5672 12.2808 19.4092
rtibia -4.70589
rfoot -21.4621 -15.0314
rtoes 29.1707
lfemur 7.70498 -1.67038 -12.3005
ltibia -2.02304
lfoot -10.5679 -1.53365
ltoes 7.90544
392
root 10.9926 21.5872 15.3761 2.38158 -0.390408 -1.29906
lowerback -8.53555 0.037214 2.81923
upperback -6.00109 -0.133786 -0.0200398
thorax -1.44076 -0.150786 -1.61189
lowerneck -3.52942 -1.09826 -1.40768
upperneck 7.28752 -1.58111 2.60958
head 2.98107 -0.735279 1.03054
rclavicle -7.61594e-015 7.97002e-015
rhumerus 80.52 -13.9483 -45.0162
rradius 23.661
rwrist 7.33545
rhand -13.7698 -37.1377
rfingers 7.12502
rthumb 12.351 -66.7529
lclavicle -7.61594e-015 7.97002e-015
lhumerus 85.7397 11.805 39.9361
lradius 18.488
lwrist -10.4892
lhand -4.51053 -12.125
lfingers 7.12502
lthumb 21.2636 16.7286
rfemur 10.6139 12.199 19.4625
rtibia -4.70981
rfoot -21.3814 -15.0142
rtoes 28.8948
lfemur 7.7774 -1.73637 -12.2484
ltibia -2.08412
lfoot -10.6252 -1.48921
ltoes 7.45395
